<mxfile host="app.diagrams.net" agent="Mozilla/5.0 (Windows NT 10.0; Win64; x64) AppleWebKit/537.36 (KHTML, like Gecko) Chrome/141.0.0.0 Safari/537.36" version="28.2.7">
  <diagram name="PÃ¡gina-1" id="0OFblG4wIrx42TjNYspR">
    <mxGraphModel dx="1932" dy="473" grid="1" gridSize="10" guides="1" tooltips="1" connect="1" arrows="1" fold="1" page="1" pageScale="1" pageWidth="827" pageHeight="1169" math="0" shadow="0">
      <root>
        <mxCell id="0" />
        <mxCell id="1" parent="0" />
        <mxCell id="Gp4qbvKWz5TyAVRhxQ6b-1" value="Delantero" style="html=1;whiteSpace=wrap;" vertex="1" parent="1">
          <mxGeometry x="-30" y="20" width="60" height="50" as="geometry" />
        </mxCell>
        <mxCell id="Gp4qbvKWz5TyAVRhxQ6b-2" value="Centro" style="html=1;whiteSpace=wrap;" vertex="1" parent="1">
          <mxGeometry x="50" y="20" width="60" height="50" as="geometry" />
        </mxCell>
        <mxCell id="Gp4qbvKWz5TyAVRhxQ6b-3" value="Tiro" style="html=1;whiteSpace=wrap;" vertex="1" parent="1">
          <mxGeometry x="185" y="20" width="45" height="50" as="geometry" />
        </mxCell>
        <mxCell id="Gp4qbvKWz5TyAVRhxQ6b-4" value="Violation" style="html=1;whiteSpace=wrap;" vertex="1" parent="1">
          <mxGeometry x="310" y="20" width="60" height="50" as="geometry" />
        </mxCell>
        <mxCell id="Gp4qbvKWz5TyAVRhxQ6b-7" value="LapsoDeTiro" style="swimlane;fontStyle=0;childLayout=stackLayout;horizontal=1;startSize=26;fillColor=none;horizontalStack=0;resizeParent=1;resizeParentMax=0;resizeLast=0;collapsible=1;marginBottom=0;whiteSpace=wrap;html=1;" vertex="1" parent="1">
          <mxGeometry x="170" y="180" width="140" height="102" as="geometry" />
        </mxCell>
        <mxCell id="Gp4qbvKWz5TyAVRhxQ6b-8" value="- Professional: Integer" style="text;strokeColor=none;fillColor=none;align=left;verticalAlign=top;spacingLeft=4;spacingRight=4;overflow=hidden;rotatable=0;points=[[0,0.5],[1,0.5]];portConstraint=eastwest;whiteSpace=wrap;html=1;" vertex="1" parent="Gp4qbvKWz5TyAVRhxQ6b-7">
          <mxGeometry y="26" width="140" height="24" as="geometry" />
        </mxCell>
        <mxCell id="Gp4qbvKWz5TyAVRhxQ6b-9" value="- Colegial: Integer" style="text;strokeColor=none;fillColor=none;align=left;verticalAlign=top;spacingLeft=4;spacingRight=4;overflow=hidden;rotatable=0;points=[[0,0.5],[1,0.5]];portConstraint=eastwest;whiteSpace=wrap;html=1;" vertex="1" parent="Gp4qbvKWz5TyAVRhxQ6b-7">
          <mxGeometry y="50" width="140" height="26" as="geometry" />
        </mxCell>
        <mxCell id="Gp4qbvKWz5TyAVRhxQ6b-10" value="- International: Integer" style="text;strokeColor=none;fillColor=none;align=left;verticalAlign=top;spacingLeft=4;spacingRight=4;overflow=hidden;rotatable=0;points=[[0,0.5],[1,0.5]];portConstraint=eastwest;whiteSpace=wrap;html=1;" vertex="1" parent="Gp4qbvKWz5TyAVRhxQ6b-7">
          <mxGeometry y="76" width="140" height="26" as="geometry" />
        </mxCell>
        <mxCell id="Gp4qbvKWz5TyAVRhxQ6b-11" value="Son segundos" style="shape=note2;boundedLbl=1;whiteSpace=wrap;html=1;size=25;verticalAlign=top;align=center;" vertex="1" parent="1">
          <mxGeometry x="440" y="150" width="116" height="60" as="geometry" />
        </mxCell>
        <mxCell id="Gp4qbvKWz5TyAVRhxQ6b-15" value="" style="html=1;verticalAlign=bottom;labelBackgroundColor=none;endArrow=none;endFill=0;dashed=1;rounded=0;exitX=1;exitY=0.5;exitDx=0;exitDy=0;entryX=0;entryY=0.5;entryDx=0;entryDy=0;entryPerimeter=0;" edge="1" parent="1" source="Gp4qbvKWz5TyAVRhxQ6b-9" target="Gp4qbvKWz5TyAVRhxQ6b-11">
          <mxGeometry width="160" relative="1" as="geometry">
            <mxPoint x="340" y="250" as="sourcePoint" />
            <mxPoint x="500" y="250" as="targetPoint" />
          </mxGeometry>
        </mxCell>
        <mxCell id="Gp4qbvKWz5TyAVRhxQ6b-16" value="GameStopwatch" style="swimlane;fontStyle=0;childLayout=stackLayout;horizontal=1;startSize=26;fillColor=none;horizontalStack=0;resizeParent=1;resizeParentMax=0;resizeLast=0;collapsible=1;marginBottom=0;whiteSpace=wrap;html=1;" vertex="1" parent="1">
          <mxGeometry x="630" y="60" width="140" height="104" as="geometry" />
        </mxCell>
        <mxCell id="Gp4qbvKWz5TyAVRhxQ6b-17" value="- professional: Integer" style="text;strokeColor=none;fillColor=none;align=left;verticalAlign=top;spacingLeft=4;spacingRight=4;overflow=hidden;rotatable=0;points=[[0,0.5],[1,0.5]];portConstraint=eastwest;whiteSpace=wrap;html=1;" vertex="1" parent="Gp4qbvKWz5TyAVRhxQ6b-16">
          <mxGeometry y="26" width="140" height="26" as="geometry" />
        </mxCell>
        <mxCell id="Gp4qbvKWz5TyAVRhxQ6b-18" value="- colegial: Integer" style="text;strokeColor=none;fillColor=none;align=left;verticalAlign=top;spacingLeft=4;spacingRight=4;overflow=hidden;rotatable=0;points=[[0,0.5],[1,0.5]];portConstraint=eastwest;whiteSpace=wrap;html=1;" vertex="1" parent="Gp4qbvKWz5TyAVRhxQ6b-16">
          <mxGeometry y="52" width="140" height="26" as="geometry" />
        </mxCell>
        <mxCell id="Gp4qbvKWz5TyAVRhxQ6b-19" value="+ International: Integer" style="text;strokeColor=none;fillColor=none;align=left;verticalAlign=top;spacingLeft=4;spacingRight=4;overflow=hidden;rotatable=0;points=[[0,0.5],[1,0.5]];portConstraint=eastwest;whiteSpace=wrap;html=1;" vertex="1" parent="Gp4qbvKWz5TyAVRhxQ6b-16">
          <mxGeometry y="78" width="140" height="26" as="geometry" />
        </mxCell>
        <mxCell id="Gp4qbvKWz5TyAVRhxQ6b-20" value="Ball" style="swimlane;fontStyle=1;align=center;verticalAlign=top;childLayout=stackLayout;horizontal=1;startSize=26;horizontalStack=0;resizeParent=1;resizeParentMax=0;resizeLast=0;collapsible=1;marginBottom=0;whiteSpace=wrap;html=1;" vertex="1" parent="1">
          <mxGeometry x="-120" y="112" width="180" height="170" as="geometry" />
        </mxCell>
        <mxCell id="Gp4qbvKWz5TyAVRhxQ6b-21" value="- name: String&lt;div&gt;- height : Double&lt;/div&gt;&lt;div&gt;- weight: Double&amp;nbsp;&lt;/div&gt;" style="text;strokeColor=none;fillColor=none;align=left;verticalAlign=top;spacingLeft=4;spacingRight=4;overflow=hidden;rotatable=0;points=[[0,0.5],[1,0.5]];portConstraint=eastwest;whiteSpace=wrap;html=1;" vertex="1" parent="Gp4qbvKWz5TyAVRhxQ6b-20">
          <mxGeometry y="26" width="180" height="54" as="geometry" />
        </mxCell>
        <mxCell id="Gp4qbvKWz5TyAVRhxQ6b-22" value="" style="line;strokeWidth=1;fillColor=none;align=left;verticalAlign=middle;spacingTop=-1;spacingLeft=3;spacingRight=3;rotatable=0;labelPosition=right;points=[];portConstraint=eastwest;strokeColor=inherit;" vertex="1" parent="Gp4qbvKWz5TyAVRhxQ6b-20">
          <mxGeometry y="80" width="180" height="8" as="geometry" />
        </mxCell>
        <mxCell id="Gp4qbvKWz5TyAVRhxQ6b-23" value="+ driblarBalon():void&lt;div&gt;+ pasarBalon(): void&lt;/div&gt;&lt;div&gt;+ tirarBalon(): void&lt;/div&gt;&lt;div&gt;+ rebotar(): void&lt;/div&gt;&lt;div&gt;+ infraccionAlOponente(): void&lt;/div&gt;" style="text;strokeColor=none;fillColor=none;align=left;verticalAlign=top;spacingLeft=4;spacingRight=4;overflow=hidden;rotatable=0;points=[[0,0.5],[1,0.5]];portConstraint=eastwest;whiteSpace=wrap;html=1;" vertex="1" parent="Gp4qbvKWz5TyAVRhxQ6b-20">
          <mxGeometry y="88" width="180" height="82" as="geometry" />
        </mxCell>
        <mxCell id="Gp4qbvKWz5TyAVRhxQ6b-24" value="Defensa" style="html=1;whiteSpace=wrap;" vertex="1" parent="1">
          <mxGeometry x="-120" y="20" width="65" height="50" as="geometry" />
        </mxCell>
        <mxCell id="Gp4qbvKWz5TyAVRhxQ6b-25" value="Equipo" style="html=1;whiteSpace=wrap;" vertex="1" parent="1">
          <mxGeometry x="120" y="20" width="50" height="50" as="geometry" />
        </mxCell>
        <mxCell id="Gp4qbvKWz5TyAVRhxQ6b-26" value="Cesto" style="html=1;whiteSpace=wrap;" vertex="1" parent="1">
          <mxGeometry x="250" y="20" width="50" height="50" as="geometry" />
        </mxCell>
        <mxCell id="Gp4qbvKWz5TyAVRhxQ6b-27" value="Cancha" style="html=1;whiteSpace=wrap;" vertex="1" parent="1">
          <mxGeometry x="-210" y="20" width="70" height="50" as="geometry" />
        </mxCell>
        <mxCell id="Gp4qbvKWz5TyAVRhxQ6b-28" value="TiroLibre" style="html=1;whiteSpace=wrap;" vertex="1" parent="1">
          <mxGeometry x="-300" y="20" width="70" height="50" as="geometry" />
        </mxCell>
        <mxCell id="Gp4qbvKWz5TyAVRhxQ6b-29" value="LineaDeTiroLibre" style="html=1;whiteSpace=wrap;" vertex="1" parent="1">
          <mxGeometry x="-420" y="20" width="100" height="50" as="geometry" />
        </mxCell>
        <mxCell id="Gp4qbvKWz5TyAVRhxQ6b-30" value="LineaDeTresPuntos" style="html=1;whiteSpace=wrap;" vertex="1" parent="1">
          <mxGeometry x="-540" y="20" width="100" height="50" as="geometry" />
        </mxCell>
        <mxCell id="Gp4qbvKWz5TyAVRhxQ6b-36" value="Duration" style="swimlane;fontStyle=0;childLayout=stackLayout;horizontal=1;startSize=26;fillColor=none;horizontalStack=0;resizeParent=1;resizeParentMax=0;resizeLast=0;collapsible=1;marginBottom=0;whiteSpace=wrap;html=1;" vertex="1" parent="1">
          <mxGeometry x="-410" y="128" width="140" height="104" as="geometry" />
        </mxCell>
        <mxCell id="Gp4qbvKWz5TyAVRhxQ6b-37" value="- profesional: Integer" style="text;strokeColor=none;fillColor=none;align=left;verticalAlign=top;spacingLeft=4;spacingRight=4;overflow=hidden;rotatable=0;points=[[0,0.5],[1,0.5]];portConstraint=eastwest;whiteSpace=wrap;html=1;" vertex="1" parent="Gp4qbvKWz5TyAVRhxQ6b-36">
          <mxGeometry y="26" width="140" height="26" as="geometry" />
        </mxCell>
        <mxCell id="Gp4qbvKWz5TyAVRhxQ6b-38" value="- colegial : Integer" style="text;strokeColor=none;fillColor=none;align=left;verticalAlign=top;spacingLeft=4;spacingRight=4;overflow=hidden;rotatable=0;points=[[0,0.5],[1,0.5]];portConstraint=eastwest;whiteSpace=wrap;html=1;" vertex="1" parent="Gp4qbvKWz5TyAVRhxQ6b-36">
          <mxGeometry y="52" width="140" height="26" as="geometry" />
        </mxCell>
        <mxCell id="Gp4qbvKWz5TyAVRhxQ6b-39" value="- International: Integer" style="text;strokeColor=none;fillColor=none;align=left;verticalAlign=top;spacingLeft=4;spacingRight=4;overflow=hidden;rotatable=0;points=[[0,0.5],[1,0.5]];portConstraint=eastwest;whiteSpace=wrap;html=1;" vertex="1" parent="Gp4qbvKWz5TyAVRhxQ6b-36">
          <mxGeometry y="78" width="140" height="26" as="geometry" />
        </mxCell>
      </root>
    </mxGraphModel>
  </diagram>
</mxfile>
